<svg xmlns="http://www.w3.org/2000/svg" width="43.988" height="31.796" viewBox="0 0 43.988 31.796">
  <path id="Path_12" data-name="Path 12" d="M42.3,16.273a10.546,10.546,0,0,0-.829-1.106l-.106-.106a9.919,9.919,0,0,0-5.721-3.119l-.1-.019-.476,3.157-.014.1.1.017a6.751,6.751,0,0,1,4.022,2.4c.106.13.242.307.362.488s.215.348.3.5a6.434,6.434,0,0,1,.374.8q.054.138.1.283a6.409,6.409,0,0,1,.268,1.075l.017.109a6.762,6.762,0,0,1,.058,1.242v.06a6.64,6.64,0,0,1-7.016,6.281,6.758,6.758,0,0,1-6.368-7l.01-.174a6.62,6.62,0,0,1,2.131-4.489l.034-.043A10.022,10.022,0,1,0,12.059,8.7l-.014.1,3.261.365.014-.1a6.743,6.743,0,1,1,11.763,5.366c-.215.208-.4.379-.558.56a6.876,6.876,0,0,1-5.3,1.727,6.609,6.609,0,0,1-3.979-1.894,13.221,13.221,0,0,0-5.051-2.81L12,11.976a1.143,1.143,0,0,0-.234-.058l-.326-.056c-.222-.034-.466-.06-.744-.08a.651.651,0,0,1-.1-.012.727.727,0,0,0-.109-.01h-.075a8.2,8.2,0,0,0-.843,0h-.09a9.854,9.854,0,0,0-2.843.573,8.984,8.984,0,0,0-.86.36l-.06.027c-.256.121-.517.263-.8.432l-.06.031a1.217,1.217,0,0,1-.111.063l-.075.043A10,10,0,0,0,1.007,17.4l-.068.135c-.114.249-.213.5-.283.689L.61,18.34c-.014.039-.031.077-.043.116-.087.244-.155.5-.215.713l-.024.092c-.014.041-.027.085-.036.123l-.046.167c-.058.261-.1.527-.135.761a10.037,10.037,0,0,0,1.4,6.793A9.875,9.875,0,0,0,7.74,31.544c.109.027.217.041.343.06l.314.053c.092.017.186.034.28.046.14.019.283.031.423.041l.341.034h.126c.053,0,.109.007.186.012s.13.01.2.01a10.129,10.129,0,0,0,9.7-7.6l.024-.1-3.208-.73-.027.094a6.817,6.817,0,0,1-6.508,5.042c-.143,0-.287,0-.43-.014a6.84,6.84,0,0,1-1.048-.15,3.079,3.079,0,0,1-.329-.106l-.027-.01c-.053-.019-.106-.041-.159-.056a6.648,6.648,0,0,1-2.887-1.841,6.733,6.733,0,0,1-.792-1.061.35.35,0,0,1-.034-.068A6.643,6.643,0,0,1,3.7,24.1a1.186,1.186,0,0,1-.039-.14c-.01-.034-.017-.068-.029-.1a6.744,6.744,0,0,1-.256-1.019A1.729,1.729,0,0,1,3.36,22.6a.511.511,0,0,0-.01-.123,6.68,6.68,0,0,1-.046-.933,6.936,6.936,0,0,1,.155-1.2A7.641,7.641,0,0,1,3.892,19a6.512,6.512,0,0,1,.589-1.036l.08-.123a6.728,6.728,0,0,1,.759-.877l.1-.1a6.709,6.709,0,0,1,.969-.754l.065-.043A6.606,6.606,0,0,1,7.578,15.5l.048-.019a6.511,6.511,0,0,1,1.21-.336,6.591,6.591,0,0,1,2.469.043,9.912,9.912,0,0,1,3.851,2.179,9.737,9.737,0,0,0,5.721,2.624A10.044,10.044,0,0,0,24,19.844l.147-.031-.046.256c-.012.07-.024.14-.034.213l-.014.1h-.019l-.014.109a10,10,0,0,0,8.46,11.144,5.911,5.911,0,0,0,.594.051l.242.012.085.01.143.007a1.975,1.975,0,0,1,.2.017,2.03,2.03,0,0,0,.242.017,9.946,9.946,0,0,0,3.59-.672l.06-.024c.268-.106.512-.213.749-.329l.145-.077c.242-.123.454-.239.647-.358l.1-.065c.244-.152.464-.3.672-.457A9.889,9.889,0,0,0,42.3,16.273" transform="translate(0.001 -0.004)" fill="#fff"/>
</svg>
