<svg xmlns="http://www.w3.org/2000/svg" xmlns:xlink="http://www.w3.org/1999/xlink" width="300.138" height="31.795" viewBox="0 0 300.138 31.795" class="logo-svg" data-v-103ccb2a=""><g id="Group_2" data-name="Group 2" transform="translate(0 0)" data-v-103ccb2a=""><g id="Group_1" data-name="Group 1" transform="translate(0 0)" data-v-103ccb2a=""><path id="Path_1" data-name="Path 1" d="M43.817,19.077l-3.1-1.324A6.019,6.019,0,0,1,30.67,19.326a7.387,7.387,0,0,1-1.8-5.049,7.384,7.384,0,0,1,1.8-5.044A5.74,5.74,0,0,1,35.05,7.184,5.56,5.56,0,0,1,40.519,10.8L43.7,9.479A9.023,9.023,0,0,0,40.432,5.49a9.08,9.08,0,0,0-5.146-1.471,9.545,9.545,0,0,0-7.112,2.909,10.231,10.231,0,0,0-2.79,7.349,10.413,10.413,0,0,0,2.79,7.354,9.549,9.549,0,0,0,7.112,2.906,9.436,9.436,0,0,0,5.245-1.471,8.653,8.653,0,0,0,3.286-3.989" transform="translate(35.939 5.691)" fill="#1d2249" data-v-103ccb2a=""></path><rect id="Rectangle_1" data-name="Rectangle 1" width="3.481" height="28.205" transform="translate(83.114 1.389)" fill="#1d2249" data-v-103ccb2a=""></rect><path id="Path_2" data-name="Path 2" d="M54.183,6.926A9.423,9.423,0,0,0,47.111,4.02,9.552,9.552,0,0,0,40,6.926a10.231,10.231,0,0,0-2.79,7.351A10.233,10.233,0,0,0,40,21.631a9.545,9.545,0,0,0,7.112,2.906,9.423,9.423,0,0,0,7.071-2.906,10.075,10.075,0,0,0,2.829-7.354,10.163,10.163,0,0,0-2.829-7.351m-2.5,12.48a6.309,6.309,0,0,1-9.154,0,7.218,7.218,0,0,1-1.843-5.129A7.164,7.164,0,0,1,42.533,9.19a6.226,6.226,0,0,1,9.154,0,7.164,7.164,0,0,1,1.843,5.088,7.218,7.218,0,0,1-1.843,5.129" transform="translate(52.681 5.692)" fill="#1d2249" data-v-103ccb2a=""></path><path id="Path_3" data-name="Path 3" d="M63.735,23.531V4.282H60.254V14.938a6.5,6.5,0,0,1-1.486,4.271A4.652,4.652,0,0,1,55.06,21c-3.155,0-4.8-1.626-4.875-4.834V4.282H46.7V16.4a8.1,8.1,0,0,0,1.9,5.747,7.121,7.121,0,0,0,5.428,2.015,7.283,7.283,0,0,0,3.546-.94A6.442,6.442,0,0,0,60.1,20.879l.022-.041h.29v2.694Z" transform="translate(66.124 6.063)" fill="#1d2249" data-v-103ccb2a=""></path><path id="Path_4" data-name="Path 4" d="M74.446,28.781V.576H70.965V9.449l.164,2.776h-.292l-.024-.039A6.772,6.772,0,0,0,68.131,9.8a8.33,8.33,0,0,0-3.865-.9,8.5,8.5,0,0,0-6.477,2.984,10.678,10.678,0,0,0-2.672,7.274,10.666,10.666,0,0,0,2.674,7.276,8.486,8.486,0,0,0,6.474,2.984,8.359,8.359,0,0,0,3.865-.9,6.778,6.778,0,0,0,2.682-2.389l.024-.039h.287v2.7Zm-5.126-4.5a5.684,5.684,0,0,1-4.46,1.966A5.779,5.779,0,0,1,60.4,24.241a7.251,7.251,0,0,1-1.8-5.088,7.344,7.344,0,0,1,1.8-5.085,5.779,5.779,0,0,1,4.457-2.008,5.71,5.71,0,0,1,4.46,2.008,7.355,7.355,0,0,1,1.8,5.085,7.325,7.325,0,0,1-1.8,5.129" transform="translate(78.035 0.816)" fill="#1d2249" data-v-103ccb2a=""></path><path id="Path_5" data-name="Path 5" d="M80.363,18.6c0-2.877-1.925-4.81-5.723-5.745L71.707,12.1c-2.116-.481-3.191-1.309-3.191-2.457A2.14,2.14,0,0,1,69.683,7.83a4.8,4.8,0,0,1,2.6-.725,5.769,5.769,0,0,1,2.831.7,4.2,4.2,0,0,1,1.8,1.887l3.1-1.285a6.655,6.655,0,0,0-2.848-3.172,9.819,9.819,0,0,0-10.091.37A4.992,4.992,0,0,0,64.957,9.8c0,2.638,1.884,4.452,5.6,5.387l3.329.833c1.935.589,2.913,1.536,2.913,2.812A2.227,2.227,0,0,1,75.6,20.687a5.381,5.381,0,0,1-2.957.766,5.162,5.162,0,0,1-3.039-.986,6.1,6.1,0,0,1-2.075-2.672l-3.1,1.321a8.347,8.347,0,0,0,3.109,3.909,8.834,8.834,0,0,0,5.1,1.512,8.734,8.734,0,0,0,5.537-1.727A5.207,5.207,0,0,0,80.363,18.6" transform="translate(91.215 5.692)" fill="#1d2249" data-v-103ccb2a=""></path><path id="Path_6" data-name="Path 6" d="M92.525,6.926A9.425,9.425,0,0,0,85.451,4.02a9.551,9.551,0,0,0-7.11,2.906,10.231,10.231,0,0,0-2.79,7.351,10.225,10.225,0,0,0,2.79,7.354,9.543,9.543,0,0,0,7.11,2.906,9.425,9.425,0,0,0,7.074-2.906,10.066,10.066,0,0,0,2.829-7.354,10.164,10.164,0,0,0-2.829-7.351m-2.5,12.48a6.309,6.309,0,0,1-9.154,0,7.218,7.218,0,0,1-1.843-5.129A7.164,7.164,0,0,1,80.875,9.19a6.226,6.226,0,0,1,9.154,0,7.166,7.166,0,0,1,1.846,5.088,7.219,7.219,0,0,1-1.846,5.129" transform="translate(106.966 5.692)" fill="#1d2249" data-v-103ccb2a=""></path><path id="Path_7" data-name="Path 7" d="M96.77,4.131l.942-3.051a6.927,6.927,0,0,0-3.15-.635,6.481,6.481,0,0,0-4.677,1.761,6.161,6.161,0,0,0-1.817,4.617V9.716H84.423v3.165h3.645V28.965h3.479V12.881H96.62V9.716H91.547V7.179a3.616,3.616,0,0,1,.875-2.532,2.933,2.933,0,0,1,2.259-.959,4.868,4.868,0,0,1,2.09.442" transform="translate(119.527 0.629)" fill="#1d2249" data-v-103ccb2a=""></path><path id="Path_8" data-name="Path 8" d="M112.564,19.077l-3.1-1.324a6.019,6.019,0,0,1-10.047,1.573,7.4,7.4,0,0,1-1.8-5.049,7.386,7.386,0,0,1,1.8-5.044,5.731,5.731,0,0,1,4.38-2.049,5.56,5.56,0,0,1,5.469,3.619l3.177-1.324a9,9,0,0,0-3.266-3.989,9.066,9.066,0,0,0-5.143-1.471,9.549,9.549,0,0,0-7.112,2.909,10.231,10.231,0,0,0-2.79,7.349,10.4,10.4,0,0,0,2.793,7.354,9.543,9.543,0,0,0,7.11,2.906,9.43,9.43,0,0,0,5.245-1.471,8.653,8.653,0,0,0,3.285-3.989" transform="translate(133.272 5.691)" fill="#1d2249" data-v-103ccb2a=""></path><path id="Path_9" data-name="Path 9" d="M119.641,23.9V12.019a7.621,7.621,0,0,0-2.312-5.863,10.134,10.134,0,0,0-14.05,1.561l3.071,1.933A5.679,5.679,0,0,1,111.205,7.1a5.271,5.271,0,0,1,3.58,1.348,4.251,4.251,0,0,1,1.534,3.29v.974l-.123-.07a10.722,10.722,0,0,0-5.308-1.179,9.557,9.557,0,0,0-6.03,1.766,5.722,5.722,0,0,0-2.249,4.73,6.019,6.019,0,0,0,2.133,4.694,7.789,7.789,0,0,0,5.315,1.88,6.9,6.9,0,0,0,5.953-3.29l.024-.036h.285V23.9Zm-5.151-4.177a5.92,5.92,0,0,1-4.158,1.727,4.542,4.542,0,0,1-2.882-.969,3,3,0,0,1-1.239-2.442,3.261,3.261,0,0,1,1.52-2.72,6.271,6.271,0,0,1,3.752-1.087,7.6,7.6,0,0,1,4.805,1.365l.031.027v.039a5.44,5.44,0,0,1-1.829,4.061" transform="translate(145.277 5.692)" fill="#1d2249" data-v-103ccb2a=""></path><path id="Path_10" data-name="Path 10" d="M120.107,7.613a6.557,6.557,0,0,1,2.087.251l1.061-3.37a6.857,6.857,0,0,0-2.592-.442,6.271,6.271,0,0,0-3.343,1.077,5.211,5.211,0,0,0-2.244,2.592l-.019.056h-.3V4.608h-3.322V23.857h3.481V13.242A5.661,5.661,0,0,1,116.461,9.3a4.808,4.808,0,0,1,3.645-1.691" transform="translate(157.77 5.737)" fill="#1d2249" data-v-103ccb2a=""></path><path id="Path_11" data-name="Path 11" d="M134.94,19.426l-3.1-1.515a6.22,6.22,0,0,1-9.917,1.7,6.433,6.433,0,0,1-1.928-4.653l0-.085h15.266l.031-.324c0-3.307-.853-5.921-2.534-7.76a9.608,9.608,0,0,0-13.647.157,10.517,10.517,0,0,0-2.672,7.334,10.326,10.326,0,0,0,2.749,7.354,9.247,9.247,0,0,0,6.994,2.9,9.991,9.991,0,0,0,5.208-1.375,9.616,9.616,0,0,0,3.554-3.735m-14.666-7.5a6.165,6.165,0,0,1,1.988-3.452,5.4,5.4,0,0,1,3.6-1.288A5.867,5.867,0,0,1,129.9,8.53a4.955,4.955,0,0,1,1.672,3.4l.007.087H120.252Z" transform="translate(164.85 5.692)" fill="#1d2249" data-v-103ccb2a=""></path><path id="Path_12" data-name="Path 12" d="M42.3,16.273a10.546,10.546,0,0,0-.829-1.106l-.106-.106a9.919,9.919,0,0,0-5.721-3.119l-.1-.019-.476,3.157-.014.1.1.017a6.751,6.751,0,0,1,4.022,2.4c.106.13.242.307.362.488s.215.348.3.5a6.434,6.434,0,0,1,.374.795q.054.138.1.283a6.409,6.409,0,0,1,.268,1.075l.017.109a6.762,6.762,0,0,1,.058,1.242l0,.06a6.64,6.64,0,0,1-7.016,6.281,6.757,6.757,0,0,1-4.643-2.232,6.706,6.706,0,0,1-1.725-4.769l.01-.174a6.62,6.62,0,0,1,2.131-4.489l.034-.043A10.014,10.014,0,0,0,23.112.061,10.083,10.083,0,0,0,12.059,8.7l-.014.1,3.261.365.014-.1a6.743,6.743,0,1,1,11.763,5.366c-.215.208-.4.379-.558.56a6.876,6.876,0,0,1-5.305,1.727,6.609,6.609,0,0,1-3.979-1.894,13.221,13.221,0,0,0-5.051-2.81L12,11.976a1.143,1.143,0,0,0-.234-.058l-.326-.056c-.222-.034-.466-.06-.744-.08-.034,0-.068-.007-.1-.012a.727.727,0,0,0-.109-.01h-.075a8.2,8.2,0,0,0-.843,0H9.479a9.854,9.854,0,0,0-2.843.573c-.28.1-.556.215-.86.36l-.06.027c-.256.121-.517.263-.8.432l-.06.031a1.217,1.217,0,0,1-.111.063l-.075.043A10,10,0,0,0,1.007,17.4l-.068.135c-.114.249-.213.5-.283.689l-.046.116c-.014.039-.031.077-.043.116-.087.244-.155.5-.215.713l-.024.092c-.014.041-.027.085-.036.123l-.046.167c-.058.261-.1.527-.135.761a10.037,10.037,0,0,0,1.4,6.793A9.875,9.875,0,0,0,7.74,31.544c.109.027.217.041.343.06l.314.053c.092.017.186.034.28.046.14.019.283.031.423.041l.341.034.126,0c.053,0,.109.007.186.012s.13.01.2.01a10.129,10.129,0,0,0,9.7-7.6l.024-.1-3.208-.73-.027.094a6.817,6.817,0,0,1-6.508,5.042c-.143,0-.287,0-.43-.014a6.84,6.84,0,0,1-1.048-.15,3.079,3.079,0,0,1-.329-.106l-.027-.01c-.053-.019-.106-.041-.159-.056a6.648,6.648,0,0,1-2.887-1.841,6.733,6.733,0,0,1-.792-1.061.35.35,0,0,1-.034-.068,6.643,6.643,0,0,1-.527-1.1,1.186,1.186,0,0,1-.039-.14c-.01-.034-.017-.068-.029-.1a6.744,6.744,0,0,1-.256-1.019,1.729,1.729,0,0,1-.017-.244c0-.041,0-.082-.01-.123a6.68,6.68,0,0,1-.046-.933,6.936,6.936,0,0,1,.155-1.2A7.641,7.641,0,0,1,3.892,19a6.512,6.512,0,0,1,.589-1.036l.08-.123a6.728,6.728,0,0,1,.759-.877l.1-.1a6.709,6.709,0,0,1,.969-.754l.065-.043A6.606,6.606,0,0,1,7.578,15.5l.048-.019a6.511,6.511,0,0,1,1.21-.336,6.591,6.591,0,0,1,2.469.043,9.912,9.912,0,0,1,3.851,2.179,9.737,9.737,0,0,0,5.721,2.624A10.044,10.044,0,0,0,24,19.844l.147-.031-.046.256c-.012.07-.024.14-.034.213l-.014.1-.019,0-.014.109a10,10,0,0,0,8.46,11.144,5.911,5.911,0,0,0,.594.051l.242.012.085.01.143.007c.065,0,.133.01.2.017a2.03,2.03,0,0,0,.242.017,9.946,9.946,0,0,0,3.59-.672l.06-.024c.268-.106.512-.213.749-.329l.145-.077c.242-.123.454-.239.647-.358l.1-.065c.244-.152.464-.3.672-.457A9.889,9.889,0,0,0,42.3,16.273" transform="translate(0 0)" fill="#b7b0f6" data-v-103ccb2a=""></path></g></g></svg>